<svg fill="#000000" xmlns="http://www.w3.org/2000/svg"  viewBox="0 0 48 48" width="48px" height="48px"><path d="M 26.189453 1.9902344 C 26.128453 1.9902344 26.066859 1.9911875 26.005859 1.9921875 C 24.315859 2.0091875 18.735375 2.0332031 18.734375 2.0332031 L 18.001953 2.0371094 L 16.041016 4.5722656 C 14.656016 5.0062656 10.967656 6.4398437 8.5976562 9.9648438 C 5.4586563 14.629844 7.7945312 21.591719 7.8945312 21.886719 L 7.9453125 22.037109 C 5.2133125 22.121109 3.015625 24.303234 3.015625 26.990234 C 3.015625 28.424234 3.5467187 29.722437 4.5117188 30.648438 C 5.1787187 31.287437 6.3527969 32.021875 8.2167969 32.046875 C 9.5837969 39.772875 17.437187 45.998047 23.992188 45.998047 C 30.867188 45.998047 39.177781 39.152203 39.925781 30.908203 C 42.722781 30.898203 44.994141 28.675406 44.994141 25.941406 C 44.994141 23.237406 42.769672 21.041375 40.013672 20.984375 L 40.017578 18.839844 C 40.039578 16.695844 39.989297 13.363234 39.529297 11.615234 C 39.425297 11.220234 36.875453 1.9902344 26.189453 1.9902344 z M 17.832031 17.193359 C 19.457031 18.615359 22.183625 20.563906 25.015625 20.503906 C 27.345625 20.444906 29.678734 20.048469 31.552734 19.730469 C 32.802734 19.517469 34.336438 19.253547 34.898438 19.310547 C 35.548437 19.882547 36.494672 20.839094 37.013672 21.371094 L 36.998047 29.716797 C 36.997047 37.048797 29.127188 42.998047 23.992188 42.998047 C 18.856188 42.998047 10.986328 37.048609 10.986328 29.724609 L 11.027344 22.449219 C 12.744344 21.822219 15.654031 20.361359 17.832031 17.193359 z M 40.007812 23.982422 C 41.111812 24.034422 41.994141 24.888406 41.994141 25.941406 C 41.994141 26.996406 41.108953 27.854344 40.001953 27.902344 L 40.007812 23.982422 z M 8.0136719 25.029297 L 7.9902344 29.035156 C 7.3962344 28.986156 6.9169375 28.798422 6.5859375 28.482422 C 6.2179375 28.128422 6.0136719 27.599234 6.0136719 26.990234 C 6.0136719 25.933234 6.9036719 25.075297 8.0136719 25.029297 z M 17 26 A 2 2 0 0 0 17 30 A 2 2 0 0 0 17 26 z M 31 26 A 2 2 0 0 0 31 30 A 2 2 0 0 0 31 26 z M 20 37 L 20 39 L 28 39 L 28 37 L 20 37 z"/></svg>