<svg width="15" height="15" viewBox="0 0 15 15" fill="none" xmlns="http://www.w3.org/2000/svg">
<path fill-rule="evenodd" clip-rule="evenodd" d="M14.2883 5.74055C14.1965 5.45627 13.9443 5.25384 13.6468 5.22553L9.56846 4.85249L7.96284 1.08853C7.84504 0.812147 7.57363 0.632812 7.27325 0.632812C6.97275 0.632812 6.70135 0.812147 6.58354 1.08853L4.97423 4.85249L0.901446 5.2191C0.599274 5.24388 0.341739 5.44794 0.248548 5.73641C0.155357 6.02482 0.244744 6.34103 0.475205 6.53793L3.55365 9.2369L2.64635 13.2337C2.57967 13.5263 2.6939 13.8304 2.93678 14.0068C3.17954 14.1831 3.50409 14.1977 3.76174 14.0439L7.27728 11.9451L10.7874 14.0448C11.0452 14.1983 11.3696 14.1836 11.6124 14.0073C11.8552 13.8311 11.9697 13.5272 11.9037 13.2346L10.9964 9.23785L14.0748 6.53883C14.3009 6.34087 14.387 6.02717 14.2938 5.7415L14.2883 5.74055Z" fill="url(#paint0_linear_1_142)"/>
<defs>
<linearGradient id="paint0_linear_1_142" x1="7.27152" y1="0.632812" x2="7.27152" y2="14.1505" gradientUnits="userSpaceOnUse">
<stop stop-color="#FFD056"/>
<stop offset="0.744792" stop-color="#F8C14F"/>
<stop offset="1" stop-color="#F7B73B"/>
</linearGradient>
</defs>
</svg>
