<svg enable-background="new 0 0 24 24" height="24" viewBox="0 0 24 24" width="24" xmlns="http://www.w3.org/2000/svg"><path d="m24 4.557c-.883.392-1.832.656-2.828.775 1.018-.609 1.799-1.574 2.165-2.724-.951.564-2.005.974-3.126 1.195-.898-.957-2.179-1.555-3.595-1.555-2.72 0-4.924 2.205-4.924 4.924 0 .386.044.762.128 1.122-4.092-.206-7.72-2.166-10.149-5.145-.424.727-.667 1.573-.667 2.476 0 1.708.869 3.216 2.19 4.099-.807-.025-1.566-.247-2.23-.616v.062c0 2.386 1.697 4.376 3.95 4.828-.413.111-.848.173-1.297.173-.317 0-.625-.03-.926-.088.626 1.955 2.445 3.379 4.6 3.419-1.685 1.321-3.808 2.107-6.115 2.107-.397 0-.79-.022-1.175-.068 2.179 1.396 4.768 2.212 7.548 2.212 9.057 0 14.01-7.502 14.01-14.009 0-.213-.004-.426-.015-.637.961-.695 1.796-1.563 2.456-2.55z" fill="#fff"/></svg>